<svg width="26" height="26" viewBox="0 0 26 26" fill="none" xmlns="http://www.w3.org/2000/svg">
<path d="M25.5 13.3056C25.5 12.4444 25.4166 11.5555 25.2777 10.7222H13.2498V15.6389H20.1388C19.861 17.2223 18.9443 18.6112 17.5832 19.5001L21.6944 22.6945C24.111 20.4445 25.5 17.1667 25.5 13.3056Z" fill="#4280EF"/>
<path d="M13.2499 25.7501C16.6943 25.7501 19.5833 24.6112 21.6944 22.6668L17.5832 19.5001C16.4443 20.2779 14.9721 20.7223 13.2499 20.7223C9.91648 20.7223 7.1109 18.4723 6.08311 15.4723L1.86084 18.7223C4.02753 23.0279 8.41647 25.7501 13.2499 25.7501Z" fill="#34A353"/>
<path d="M6.0831 15.4445C5.55532 13.8611 5.55532 12.1389 6.0831 10.5556L1.86083 7.27774C0.055259 10.8889 0.055259 15.1389 1.86083 18.7223L6.0831 15.4445Z" fill="#F6B704"/>
<path d="M13.2499 5.30548C15.0554 5.27771 16.8332 5.97216 18.1388 7.22217L21.7777 3.55547C19.4721 1.38878 16.4166 0.222096 13.2499 0.249874C8.41647 0.249874 4.02753 2.97213 1.86084 7.27773L6.08311 10.5555C7.1109 7.52773 9.91648 5.30548 13.2499 5.30548Z" fill="#E54335"/>
</svg>
